<svg width="29" height="29" viewBox="0 0 29 29" fill="none" xmlns="http://www.w3.org/2000/svg">
<rect x="1.0293" y="1.0625" width="27" height="27" rx="13.5" fill="white"/>
<g clip-path="url(#clip0_3150_264)">
<path fill-rule="evenodd" clip-rule="evenodd" d="M20.3779 10.1147C20.4258 10.0668 20.4637 10.0099 20.4897 9.94738C20.5156 9.88481 20.5289 9.81776 20.5289 9.75004C20.5289 9.68232 20.5156 9.61527 20.4897 9.5527C20.4637 9.49014 20.4258 9.43329 20.3779 9.38541C20.33 9.33753 20.2732 9.29954 20.2106 9.27363C20.148 9.24771 20.081 9.23438 20.0132 9.23438C19.9455 9.23438 19.8785 9.24771 19.8159 9.27363C19.7533 9.29954 19.6965 9.33753 19.6486 9.38541L14.8631 14.172L10.0776 9.38541C10.0297 9.33753 9.97283 9.29954 9.91027 9.27363C9.84771 9.24771 9.78065 9.23438 9.71293 9.23438C9.64521 9.23437 9.57816 9.24771 9.5156 9.27363C9.45303 9.29954 9.39618 9.33753 9.3483 9.38541C9.30042 9.43329 9.26243 9.49014 9.23652 9.5527C9.2106 9.61527 9.19727 9.68232 9.19727 9.75004C9.19727 9.81776 9.2106 9.88481 9.23652 9.94738C9.26243 10.0099 9.30042 10.0668 9.3483 10.1147L14.1349 14.9002L9.3483 19.6857C9.25159 19.7824 9.19727 19.9136 9.19727 20.0504C9.19727 20.1871 9.25159 20.3183 9.3483 20.415C9.44501 20.5117 9.57617 20.566 9.71293 20.566C9.8497 20.566 9.98086 20.5117 10.0776 20.415L14.8631 15.6284L19.6486 20.415C19.7453 20.5117 19.8765 20.566 20.0132 20.566C20.15 20.566 20.2812 20.5117 20.3779 20.415C20.4746 20.3183 20.5289 20.1871 20.5289 20.0504C20.5289 19.9136 20.4746 19.7824 20.3779 19.6857L15.5913 14.9002L20.3779 10.1147Z" fill="#BABABA"/>
</g>
<rect x="1.0293" y="1.0625" width="27" height="27" rx="13.5" stroke="#D1D1D6"/>
<defs>
<clipPath id="clip0_3150_264">
<rect width="12" height="12" fill="white" transform="translate(8.5293 8.5625)"/>
</clipPath>
</defs>
</svg>
